<?xml version="1.0" encoding="UTF-8"?>
<svg xmlns="http://www.w3.org/2000/svg" xmlns:xlink="http://www.w3.org/1999/xlink" viewBox="0 0 99.6 61.9">
  <defs>
    <style>
      .cls-1 {
        fill: url(#linear-gradient-3);
      }

      .cls-1, .cls-2 {
        mix-blend-mode: multiply;
      }

      .cls-3 {
        isolation: isolate;
      }

      .cls-4 {
        fill: #352e27;
      }

      .cls-5 {
        fill: #e2051e;
      }

      .cls-2 {
        fill: url(#linear-gradient-2);
      }

      .cls-6 {
        fill: #2d2a26;
      }

      .cls-7 {
        fill: url(#linear-gradient);
      }
    </style>
    <linearGradient id="linear-gradient" x1="0" y1="22.98" x2="32.3" y2="22.98" gradientUnits="userSpaceOnUse">
      <stop offset="0" stop-color="#009fe3"/>
      <stop offset="1" stop-color="#0059a0"/>
    </linearGradient>
    <linearGradient id="linear-gradient-2" x1="14.15" y1="12.26" x2="15.39" y2="17.69" xlink:href="#linear-gradient"/>
    <linearGradient id="linear-gradient-3" x1="13.83" y1="34.81" x2="13.83" y2="19.42" xlink:href="#linear-gradient"/>
  </defs>
  <g class="cls-3">
    <g id="_레이어_2" data-name="레이어 2">
      <g id="Layer_1" data-name="Layer 1">
        <g>
          <g>
            <g>
              <path class="cls-7" d="m16.52,19.77h0c.38-.13.76-.26,1.13-.41,8.24-2.71,12.71-8.01,14.5-10.64.41-.6-.09-1.4-.81-1.3l-6.68.94c-.24.03-.45.17-.58.36-1.39,2.07-3.56,4.63-6.35,5.91-.13.06-.26.11-.39.16.03-.21.05-.4.07-.59.13-1.08.23-2.17.27-3.26,0-.28.02-.57.01-.85,0-.56,0-1.12-.08-1.68-.03-.21-.08-.44-.2-.62-.2-.31-.56-.31-.9-.3-1.1.02-2.19.2-3.24.51-1.01.3-1.98.71-2.9,1.21-.88.48-1.72,1.04-2.51,1.65-.73.57-1.42,1.19-2.08,1.84-.56.56-1.11,1.13-1.59,1.75-.11.14-.22.28-.33.42-1.14,1.48-2.87,3.61-1.44,5.28.5.59,1.26.94,2.09,1.11,1.57.33,3.37.26,5.07.06-.12.31-.25.64-.38.96l-.54,1.27c-1.73,3.85-4.38,9.34-8.42,13.57-.51.54-.14,1.42.6,1.42h9.25c.71,0,1.1-.83.64-1.37l-.44-.52c-.24-.29-.26-.7-.04-1.01,2.34-3.45,3.95-7.41,5.07-11.18,4.03,4.51,3.38,9.41,1.96,12.93-.22.55.18,1.16.77,1.16h8.78c.71,0,1.1-.83.64-1.37l-1.02-1.23c-.13-.15-.19-.35-.19-.55.15-10.53-9.73-15.64-9.73-15.64Zm-5.58-2.54h0s0,.02,0,.03c0,0-2.71.9-3.4-.4-.37-.69.3-1.48.8-2.01,0,0,0,0,0,0,.28-.3.55-.57.82-.82.52-.48,1-.83,1.4-1.08.02-.02.05-.03.07-.05.69-.42,1.16-.56,1.26-.59.01,0,.02,0,.02,0,0,0-.26,2.77-.95,4.93Z"/>
              <path class="cls-2" d="m11.87,12.3s.02,0,.02,0c0,0-.26,2.77-.95,4.93h0s0,.02,0,.03c0,0,2.62-.63,6.4-2.46.03-.21.05-.4.07-.59.13-1.08.23-2.17.27-3.26,0-.28.02-.57.01-.85,0-.56,0-1.12-.08-1.68-.03-.21-.08-.44-.2-.62-.2-.31-.56-.31-.9-.3-1.1.02-2.19.2-3.24.51-.42.12-.83.27-1.23.43l-.84,4.14c.36-.18.6-.25.67-.27Z"/>
              <path class="cls-1" d="m8.65,23.56c-1.73,3.85-4.38,9.34-8.42,13.57-.51.54-.14,1.42.6,1.42h9.25c.71,0,1.1-.83.64-1.37l-.44-.52c-.24-.29-.26-.7-.04-1.01,2.34-3.45,3.95-7.41,5.07-11.18,4.03,4.51,3.38,9.41,1.96,12.93-.22.55.18,1.16.77,1.16h8.78c.71,0,1.1-.83.64-1.37l-1.02-1.23c-.13-.15-.19-.35-.19-.55.15-10.53-9.73-15.64-9.73-15.64-3.42,1.07-6.94,1.57-6.94,1.57-.12.31-.25.64-.38.96l-.54,1.27Z"/>
            </g>
            <path class="cls-5" d="m17.73,6.19c.79-2.78,1.24-6.19,1.24-6.19,0,0-3.84.14-6.78,2.4l-.27,4.78s1.88-1.07,5.81-.99Z"/>
          </g>
          <g>
            <g>
              <path class="cls-4" d="m34.69,12.66h4.69c.55,0,.99.44.99.99v23.93c0,.55-.44.99-.99.99h-4.69c-.55,0-.99-.44-.99-.99V13.64c0-.55.44-.99.99-.99Z"/>
              <path class="cls-4" d="m34.69,12.66h4.69c.55,0,.99.44.99.99v23.93c0,.55-.44.99-.99.99h-4.69c-.55,0-.99-.44-.99-.99V13.64c0-.55.44-.99.99-.99Z"/>
            </g>
            <path class="cls-4" d="m75.28,13.61c-1.59.88-2.51,2.41-2.51,4v16.03c-.03,1.47,1.04,3.27,2.37,3.95,1.16.62,2.89.97,5.84.96h10.46c3.01,0,5.13-.5,6.37-1.32,1.22-.83,1.76-1.84,1.79-3.6v-16.03c-.03-1.82-.55-2.84-1.74-3.65-1.21-.81-3.31-1.31-6.36-1.3h-10.52c-2.96,0-4.62.34-5.71.96Zm13.69,2.88c1.18.02,2.07.06,2.91.59.87.56,1.12,1.59,1.12,2.48v12.32c0,.81-.29,1.85-1.15,2.35-.82.47-1.69.53-2.87.54h-5.45c-1.17,0-2.1-.11-2.92-.64-.85-.54-1.17-1.57-1.17-2.46v-12.11c0-.9.25-1.93,1.14-2.48.84-.52,1.74-.56,2.95-.58h5.45Z"/>
            <path class="cls-4" d="m68.63,26.06c1.15-.86,1.72-1.92,1.72-3.17v-5.65c-.02-1.46-.57-2.44-1.75-3.26-1.19-.8-3.12-1.32-5.66-1.31h-18.67c-.55,0-.99.44-.99.99l.05,23.93c0,.54.44.99.99.99h4.63c.55,0,.99-.44.99-.99v-20.09c0-.55.44-.99.99-.99h8.91c1.02,0,1.89.15,2.64.59.76.42,1.29,1.32,1.26,2.21v2.58c.03.79-.34,1.71-1.09,2.17-.72.45-1.51.55-2.44.56h-3.55c-1.46,0-2.58.34-3.25.83-.67.5-.97,1.05-.99,1.89,0,.52.17.91.4,1.15l8.71,9.76c.19.21.46.33.74.33h4.82c.86,0,1.31-1.02.73-1.65l-7.04-7.79c-.58-.64-.12-1.65.73-1.65h2.08c2.15,0,3.89-.57,5.04-1.41Z"/>
          </g>
        </g>
        <g>
          <path class="cls-6" d="m1.51,44.99h1.04v3.31h.02l1.52-3.31h1.04l-1.42,2.9,1.68,4.35h-1.1l-1.18-3.22-.56,1.05v2.17h-1.04v-7.25Z"/>
          <path class="cls-6" d="m5.66,46.7c0-.29.05-.55.15-.77.1-.22.24-.41.4-.56.17-.15.35-.26.56-.33.21-.07.42-.11.63-.11s.42.04.63.11c.21.07.39.19.56.33.17.15.3.33.4.56.1.22.15.48.15.77v3.83c0,.3-.05.56-.15.78-.1.22-.24.4-.4.55-.17.15-.35.26-.56.33-.21.07-.42.11-.63.11s-.42-.04-.63-.11c-.21-.07-.39-.19-.56-.33-.17-.15-.3-.33-.4-.55-.1-.22-.15-.48-.15-.78v-3.83Zm1.04,3.83c0,.25.07.44.21.56.14.12.3.18.49.18s.35-.06.49-.18c.14-.12.21-.3.21-.56v-3.83c0-.25-.07-.44-.21-.56-.14-.12-.3-.18-.49-.18s-.35.06-.49.18c-.14.12-.21.3-.21.56v3.83Z"/>
          <path class="cls-6" d="m10.07,44.99h1.67c1.22,0,1.83.71,1.83,2.13,0,.42-.07.78-.2,1.09-.13.3-.37.54-.7.73l1.12,3.31h-1.1l-.97-3.1h-.62v3.1h-1.04v-7.25Zm1.04,3.24h.59c.18,0,.33-.03.44-.08.11-.05.19-.12.25-.22.06-.09.1-.21.12-.35.02-.14.03-.3.03-.48s0-.34-.03-.48c-.02-.14-.06-.26-.13-.36-.07-.1-.16-.17-.27-.22-.12-.05-.27-.07-.46-.07h-.54v2.26Z"/>
          <path class="cls-6" d="m14.41,44.99h3.1v.98h-2.06v2.13h1.79v.98h-1.79v2.13h2.06v1.04h-3.1v-7.25Z"/>
          <path class="cls-6" d="m19.33,44.99h.87l1.62,7.25h-1.04l-.31-1.56h-1.42l-.31,1.56h-1.04l1.62-7.25Zm.44,2.09h-.02l-.51,2.63h1.04l-.51-2.63Z"/>
          <path class="cls-6" d="m24.25,44.99h1.04v7.25h-1.04v-7.25Z"/>
          <path class="cls-6" d="m26.25,44.99h1l1.57,4.37h.02v-4.37h1.04v7.25h-.98l-1.59-4.36h-.02v4.36h-1.04v-7.25Z"/>
          <path class="cls-6" d="m34.18,47.07h-1.04v-.23c0-.24-.06-.44-.17-.62-.11-.17-.3-.26-.57-.26-.14,0-.26.03-.35.08-.09.05-.16.12-.21.21-.05.09-.09.18-.11.3-.02.11-.03.23-.03.35,0,.14,0,.26.02.36,0,.1.04.18.08.25.04.07.1.13.18.19.08.05.18.11.32.16l.79.32c.23.09.42.19.56.31.14.12.25.26.33.42s.13.34.16.55c.03.21.04.44.04.71,0,.31-.03.59-.09.85-.06.26-.16.49-.3.67-.14.19-.32.33-.56.44-.23.11-.51.16-.85.16-.25,0-.49-.04-.7-.13-.22-.09-.4-.21-.56-.36-.16-.15-.28-.33-.37-.55-.09-.21-.14-.44-.14-.68v-.39h1.04v.33c0,.19.06.36.17.51.11.15.3.23.57.23.18,0,.31-.03.41-.08.1-.05.17-.12.22-.21.05-.09.08-.21.1-.34.01-.14.02-.29.02-.45,0-.19,0-.35-.02-.47-.01-.12-.04-.22-.09-.3-.04-.07-.11-.14-.18-.18-.08-.05-.18-.1-.31-.15l-.74-.31c-.45-.18-.75-.43-.9-.73-.15-.3-.23-.68-.23-1.14,0-.27.04-.53.11-.77.07-.24.18-.46.33-.63.15-.18.33-.32.56-.42.22-.11.49-.16.78-.16.26,0,.49.05.71.14.21.1.4.22.55.38.15.16.27.33.35.52.08.19.12.39.12.6v.51Z"/>
          <path class="cls-6" d="m35.64,45.96h-1.2v-.98h3.44v.98h-1.2v6.28h-1.04v-6.28Z"/>
          <path class="cls-6" d="m38.37,44.99h1.04v7.25h-1.04v-7.25Z"/>
          <path class="cls-6" d="m41.1,45.96h-1.2v-.98h3.44v.98h-1.2v6.28h-1.04v-6.28Z"/>
          <path class="cls-6" d="m47.16,50.61c0,.24-.04.46-.13.66-.09.2-.21.38-.36.53-.15.15-.33.27-.53.36-.2.09-.42.13-.65.13s-.45-.04-.65-.13c-.2-.09-.38-.21-.53-.36-.15-.15-.27-.33-.36-.53-.09-.2-.13-.42-.13-.66v-5.62h1.04v5.52c0,.26.06.45.18.57.12.12.27.18.46.18s.34-.06.46-.18c.12-.12.18-.31.18-.57v-5.52h1.04v5.62Z"/>
          <path class="cls-6" d="m48.82,45.96h-1.2v-.98h3.44v.98h-1.2v6.28h-1.04v-6.28Z"/>
          <path class="cls-6" d="m51.52,44.99h3.1v.98h-2.06v2.13h1.79v.98h-1.79v2.13h2.06v1.04h-3.1v-7.25Z"/>
          <path class="cls-6" d="m57.12,46.7c0-.29.05-.55.15-.77.1-.22.24-.41.4-.56.17-.15.35-.26.56-.33.21-.07.42-.11.63-.11s.42.04.63.11c.21.07.39.19.56.33.17.15.3.33.4.56.1.22.15.48.15.77v3.83c0,.3-.05.56-.15.78-.1.22-.24.4-.4.55-.17.15-.35.26-.56.33-.21.07-.42.11-.63.11s-.42-.04-.63-.11c-.21-.07-.39-.19-.56-.33-.17-.15-.3-.33-.4-.55-.1-.22-.15-.48-.15-.78v-3.83Zm1.04,3.83c0,.25.07.44.21.56.14.12.3.18.49.18s.35-.06.49-.18c.14-.12.21-.3.21-.56v-3.83c0-.25-.07-.44-.21-.56-.14-.12-.3-.18-.49-.18s-.35.06-.49.18c-.14.12-.21.3-.21.56v3.83Z"/>
          <path class="cls-6" d="m61.52,44.99h3.1v.98h-2.06v2.2h1.79v.98h-1.79v3.1h-1.04v-7.25Z"/>
          <path class="cls-6" d="m67.18,44.99h1.67c1.22,0,1.83.71,1.83,2.13,0,.42-.07.78-.2,1.09-.13.3-.37.54-.7.73l1.12,3.31h-1.1l-.97-3.1h-.62v3.1h-1.04v-7.25Zm1.04,3.24h.59c.18,0,.33-.03.44-.08.11-.05.19-.12.25-.22.06-.09.1-.21.12-.35.02-.14.03-.3.03-.48s0-.34-.03-.48c-.02-.14-.06-.26-.13-.36-.07-.1-.16-.17-.27-.22-.12-.05-.27-.07-.46-.07h-.54v2.26Z"/>
          <path class="cls-6" d="m71.46,46.7c0-.29.05-.55.15-.77.1-.22.24-.41.4-.56.17-.15.35-.26.56-.33.21-.07.42-.11.63-.11s.42.04.63.11c.21.07.39.19.56.33.17.15.3.33.4.56.1.22.15.48.15.77v3.83c0,.3-.05.56-.15.78-.1.22-.24.4-.4.55-.17.15-.35.26-.56.33-.21.07-.42.11-.63.11s-.42-.04-.63-.11c-.21-.07-.39-.19-.56-.33-.17-.15-.3-.33-.4-.55-.1-.22-.15-.48-.15-.78v-3.83Zm1.04,3.83c0,.25.07.44.21.56.14.12.3.18.49.18s.35-.06.49-.18c.14-.12.21-.3.21-.56v-3.83c0-.25-.07-.44-.21-.56-.14-.12-.3-.18-.49-.18s-.35.06-.49.18c-.14.12-.21.3-.21.56v3.83Z"/>
          <path class="cls-6" d="m75.86,44.99h1.52c.33,0,.62.05.85.15.23.1.43.24.58.41s.26.37.32.59c.06.22.1.45.1.69v.27c0,.2-.01.36-.05.5-.03.14-.08.25-.14.36-.06.1-.14.19-.22.27-.09.08-.19.15-.31.22.25.12.42.29.54.51.12.23.17.53.17.91v.41c0,.64-.15,1.13-.46,1.47-.31.34-.8.51-1.48.51h-1.42v-7.25Zm1.04,2.98h.47c.35,0,.58-.09.7-.26.12-.17.18-.43.18-.76s-.07-.57-.2-.73c-.13-.16-.37-.24-.72-.24h-.43v2Zm0,3.24h.45c.21,0,.37-.03.49-.09.12-.06.21-.15.27-.25.06-.11.1-.24.11-.39.01-.15.02-.31.02-.49s-.01-.34-.03-.48c-.02-.14-.06-.25-.13-.34-.06-.09-.15-.16-.27-.21-.12-.05-.27-.07-.46-.07h-.46v2.32Z"/>
          <path class="cls-6" d="m80.14,46.7c0-.29.05-.55.15-.77.1-.22.24-.41.4-.56.17-.15.35-.26.56-.33.21-.07.42-.11.63-.11s.42.04.63.11c.21.07.39.19.56.33.17.15.3.33.4.56.1.22.15.48.15.77v3.83c0,.3-.05.56-.15.78-.1.22-.24.4-.4.55-.17.15-.35.26-.56.33-.21.07-.42.11-.63.11s-.42-.04-.63-.11c-.21-.07-.39-.19-.56-.33-.17-.15-.3-.33-.4-.55-.1-.22-.15-.48-.15-.78v-3.83Zm1.04,3.83c0,.25.07.44.21.56.14.12.3.18.49.18s.35-.06.49-.18c.14-.12.21-.3.21-.56v-3.83c0-.25-.07-.44-.21-.56-.14-.12-.3-.18-.49-.18s-.35.06-.49.18c-.14.12-.21.3-.21.56v3.83Z"/>
          <path class="cls-6" d="m85.1,45.96h-1.2v-.98h3.44v.98h-1.2v6.28h-1.04v-6.28Z"/>
          <path class="cls-6" d="m87.83,44.99h1.04v7.25h-1.04v-7.25Z"/>
          <path class="cls-6" d="m93.18,50.62c0,.22-.04.44-.13.64-.08.2-.2.38-.35.53-.15.15-.32.28-.52.37-.2.09-.42.14-.65.14-.2,0-.4-.03-.6-.08-.2-.05-.39-.15-.55-.28-.16-.13-.3-.31-.4-.52-.11-.22-.16-.49-.16-.83v-3.99c0-.24.04-.46.12-.66.08-.2.2-.38.35-.53s.33-.27.54-.35c.21-.09.44-.13.69-.13.24,0,.46.04.66.13.2.08.38.2.53.36.15.15.27.34.35.55.08.21.13.45.13.7v.41h-1.04v-.35c0-.2-.06-.38-.17-.53-.12-.15-.27-.22-.47-.22-.26,0-.43.08-.51.24-.08.16-.13.36-.13.61v3.71c0,.21.05.39.14.53.09.14.26.21.49.21.07,0,.14-.01.22-.04.08-.02.15-.06.21-.12.06-.05.12-.13.16-.22.04-.1.06-.21.06-.36v-.36h1.04v.45Z"/>
          <path class="cls-6" d="m97.39,47.07h-1.04v-.23c0-.24-.06-.44-.17-.62-.11-.17-.3-.26-.57-.26-.14,0-.26.03-.35.08-.09.05-.16.12-.21.21s-.09.18-.11.3c-.02.11-.03.23-.03.35,0,.14,0,.26.02.36,0,.1.04.18.08.25.04.07.1.13.18.19.08.05.18.11.32.16l.79.32c.23.09.42.19.56.31.14.12.25.26.33.42.08.16.13.34.16.55.03.21.04.44.04.71,0,.31-.03.59-.09.85-.06.26-.16.49-.3.67-.14.19-.32.33-.56.44-.23.11-.51.16-.85.16-.25,0-.49-.04-.7-.13-.22-.09-.4-.21-.56-.36-.16-.15-.28-.33-.37-.55-.09-.21-.14-.44-.14-.68v-.39h1.04v.33c0,.19.06.36.17.51.11.15.3.23.57.23.18,0,.31-.03.41-.08.1-.05.17-.12.22-.21.05-.09.08-.21.1-.34.01-.14.02-.29.02-.45,0-.19,0-.35-.02-.47-.01-.12-.04-.22-.09-.3-.04-.07-.11-.14-.18-.18-.08-.05-.18-.1-.31-.15l-.74-.31c-.45-.18-.75-.43-.9-.73-.15-.3-.23-.68-.23-1.14,0-.27.04-.53.11-.77.07-.24.18-.46.33-.63.15-.18.33-.32.56-.42.22-.11.49-.16.78-.16.26,0,.49.05.71.14.21.1.4.22.55.38.15.16.27.33.35.52.08.19.12.39.12.6v.51Z"/>
          <path class="cls-6" d="m4.27,61.29c-.2.2-.42.36-.64.46-.22.1-.47.15-.75.15-.2,0-.4-.04-.58-.12-.18-.08-.34-.2-.48-.34-.14-.15-.24-.32-.32-.53-.08-.21-.12-.44-.12-.69,0-.4.09-.75.29-1.05.19-.3.43-.58.71-.84-.18-.26-.33-.52-.45-.8-.12-.28-.18-.57-.18-.87,0-.19.03-.37.09-.54.06-.17.15-.32.26-.45.12-.13.26-.23.44-.3.18-.07.38-.11.62-.11.22,0,.42.04.59.11.17.07.31.17.43.29.12.12.2.26.27.42.06.16.09.33.09.5,0,.34-.11.66-.32.97-.21.31-.46.59-.74.85.13.2.28.43.44.71.17.28.34.55.51.81l.56-.76.64.45-.77,1,.79,1.24h-1.04l-.35-.55Zm-1.97-1.12c0,.25.07.47.22.65.15.18.33.27.55.27.16,0,.31-.05.45-.15.14-.1.25-.19.33-.29l-1-1.59c-.16.16-.29.32-.39.5-.11.18-.16.38-.16.61Zm.37-3.48c0,.16.04.32.11.5.07.18.17.36.29.55.06-.06.13-.13.2-.21.07-.08.14-.16.2-.26.06-.1.11-.2.15-.31.04-.11.06-.23.06-.36s-.04-.25-.13-.36c-.09-.11-.21-.16-.37-.16s-.28.06-.38.19c-.09.13-.14.27-.14.42Z"/>
          <path class="cls-6" d="m9.07,55.57h-1.2v-.98h3.44v.98h-1.2v6.28h-1.04v-6.28Z"/>
          <path class="cls-6" d="m11.81,54.59h3.1v.98h-2.06v2.13h1.79v.98h-1.79v2.13h2.06v1.04h-3.1v-7.25Z"/>
          <path class="cls-6" d="m18.92,60.22c0,.22-.04.44-.13.64-.08.2-.2.38-.35.53-.15.15-.32.28-.52.37-.2.09-.42.14-.65.14-.2,0-.4-.03-.6-.08-.2-.05-.39-.15-.55-.28-.16-.13-.3-.31-.4-.52-.11-.22-.16-.49-.16-.83v-3.99c0-.24.04-.46.12-.66.08-.2.2-.38.35-.53.15-.15.33-.27.54-.35s.44-.13.69-.13c.24,0,.46.04.66.13s.38.2.53.36c.15.15.27.34.35.55.08.21.13.45.13.7v.41h-1.04v-.35c0-.2-.06-.38-.17-.53-.12-.15-.27-.22-.47-.22-.26,0-.43.08-.51.24-.08.16-.13.36-.13.61v3.71c0,.21.05.39.14.53.09.14.26.21.49.21.07,0,.14-.01.22-.04.08-.02.15-.06.21-.12.06-.05.12-.13.16-.22s.06-.21.06-.36v-.36h1.04v.45Z"/>
          <path class="cls-6" d="m19.8,54.59h1.04v3.11h1.28v-3.11h1.04v7.25h-1.04v-3.23h-1.28v3.23h-1.04v-7.25Z"/>
          <path class="cls-6" d="m24.14,54.59h1l1.57,4.37h.02v-4.37h1.04v7.25h-.98l-1.59-4.36h-.02v4.36h-1.04v-7.25Z"/>
          <path class="cls-6" d="m28.69,56.3c0-.29.05-.55.15-.77.1-.22.24-.41.4-.56.17-.15.35-.26.56-.33.21-.07.42-.11.63-.11s.42.04.63.11c.21.07.39.18.56.33.17.15.3.33.4.56.1.22.15.48.15.77v3.83c0,.3-.05.56-.15.78-.1.22-.24.4-.4.55-.17.15-.35.26-.56.33-.21.07-.42.11-.63.11s-.42-.04-.63-.11c-.21-.07-.39-.19-.56-.33-.17-.15-.3-.33-.4-.55-.1-.22-.15-.48-.15-.78v-3.83Zm1.04,3.83c0,.25.07.44.21.56.14.12.3.18.49.18s.35-.06.49-.18c.14-.12.21-.3.21-.56v-3.83c0-.25-.07-.44-.21-.56-.14-.12-.3-.18-.49-.18s-.35.06-.49.18c-.14.12-.21.3-.21.56v3.83Z"/>
          <path class="cls-6" d="m33.13,54.59h1.04v6.21h2.06v1.04h-3.1v-7.25Z"/>
          <path class="cls-6" d="m36.88,56.3c0-.29.05-.55.15-.77.1-.22.24-.41.4-.56.17-.15.35-.26.56-.33.21-.07.42-.11.63-.11s.42.04.63.11c.21.07.39.18.56.33.17.15.3.33.4.56.1.22.15.48.15.77v3.83c0,.3-.05.56-.15.78-.1.22-.24.4-.4.55-.17.15-.35.26-.56.33-.21.07-.42.11-.63.11s-.42-.04-.63-.11c-.21-.07-.39-.19-.56-.33-.17-.15-.3-.33-.4-.55-.1-.22-.15-.48-.15-.78v-3.83Zm1.04,3.83c0,.25.07.44.21.56.14.12.3.18.49.18s.35-.06.49-.18c.14-.12.21-.3.21-.56v-3.83c0-.25-.07-.44-.21-.56-.14-.12-.3-.18-.49-.18s-.35.06-.49.18c-.14.12-.21.3-.21.56v3.83Z"/>
          <path class="cls-6" d="m41.26,56.3c0-.29.05-.55.15-.77.1-.22.24-.41.4-.56.17-.15.35-.26.56-.33.21-.07.42-.11.63-.11s.42.04.63.11c.21.07.39.18.56.33.17.15.3.33.4.56.1.22.15.48.15.77v.37h-1.04v-.37c0-.25-.07-.44-.21-.56-.14-.12-.3-.18-.49-.18s-.35.06-.49.18c-.14.12-.21.3-.21.56v3.83c0,.25.07.44.21.56.14.12.3.18.49.18s.35-.06.49-.18c.14-.12.21-.3.21-.56v-1.37h-.83v-.92h1.86v2.28c0,.3-.05.56-.15.78-.1.22-.24.4-.4.55-.17.15-.35.26-.56.33-.21.07-.42.11-.63.11s-.42-.04-.63-.11c-.21-.07-.39-.19-.56-.33-.17-.15-.3-.33-.4-.55-.1-.22-.15-.48-.15-.78v-3.83Z"/>
          <path class="cls-6" d="m46.67,58.78l-1.43-4.19h1.1l.83,2.88h.02l.84-2.88h1.1l-1.43,4.19v3.07h-1.04v-3.07Z"/>
          <path class="cls-6" d="m54.93,60.22c0,.22-.04.44-.13.64-.08.2-.2.38-.35.53-.15.15-.32.28-.52.37-.2.09-.42.14-.65.14-.2,0-.4-.03-.6-.08-.2-.05-.39-.15-.55-.28-.16-.13-.3-.31-.4-.52s-.16-.49-.16-.83v-3.99c0-.24.04-.46.12-.66.08-.2.2-.38.35-.53.15-.15.33-.27.54-.35s.44-.13.69-.13c.24,0,.46.04.66.13.2.09.38.2.53.36.15.15.27.34.35.55.08.21.13.45.13.7v.41h-1.04v-.35c0-.2-.06-.38-.17-.53-.12-.15-.27-.22-.47-.22-.26,0-.43.08-.51.24-.08.16-.13.36-.13.61v3.71c0,.21.05.39.14.53.09.14.26.21.49.21.07,0,.14-.01.22-.04.08-.02.15-.06.21-.12.06-.05.12-.13.16-.22s.06-.21.06-.36v-.36h1.04v.45Z"/>
          <path class="cls-6" d="m55.76,56.3c0-.29.05-.55.15-.77.1-.22.24-.41.4-.56.17-.15.35-.26.56-.33.21-.07.42-.11.63-.11s.42.04.63.11c.21.07.39.18.56.33.17.15.3.33.4.56.1.22.15.48.15.77v3.83c0,.3-.05.56-.15.78-.1.22-.24.4-.4.55-.17.15-.35.26-.56.33-.21.07-.42.11-.63.11s-.42-.04-.63-.11c-.21-.07-.39-.19-.56-.33-.17-.15-.3-.33-.4-.55-.1-.22-.15-.48-.15-.78v-3.83Zm1.04,3.83c0,.25.07.44.21.56.14.12.3.18.49.18s.35-.06.49-.18c.14-.12.21-.3.21-.56v-3.83c0-.25-.07-.44-.21-.56-.14-.12-.3-.18-.49-.18s-.35.06-.49.18c-.14.12-.21.3-.21.56v3.83Z"/>
          <path class="cls-6" d="m60.16,54.59h1l1.57,4.37h.02v-4.37h1.04v7.25h-.98l-1.59-4.36h-.02v4.36h-1.04v-7.25Z"/>
          <path class="cls-6" d="m66.8,61.84h-.92l-1.48-7.25h1.1l.83,5.06h.02l.84-5.06h1.1l-1.49,7.25Z"/>
          <path class="cls-6" d="m68.95,54.59h3.1v.98h-2.06v2.13h1.79v.98h-1.79v2.13h2.06v1.04h-3.1v-7.25Z"/>
          <path class="cls-6" d="m72.76,54.59h1.67c1.22,0,1.83.71,1.83,2.13,0,.42-.07.78-.2,1.08-.13.3-.37.55-.7.73l1.12,3.31h-1.1l-.97-3.1h-.62v3.1h-1.04v-7.25Zm1.04,3.24h.59c.18,0,.33-.03.44-.08.11-.05.19-.12.25-.22.06-.09.1-.21.12-.35.02-.14.03-.3.03-.48s0-.34-.03-.48c-.02-.14-.06-.26-.13-.36-.07-.1-.16-.17-.27-.22-.12-.05-.27-.07-.46-.07h-.54v2.26Z"/>
          <path class="cls-6" d="m77.08,56.3c0-.29.05-.55.15-.77.1-.22.24-.41.4-.56.17-.15.35-.26.56-.33.21-.07.42-.11.63-.11s.42.04.63.11c.21.07.39.18.56.33.17.15.3.33.4.56.1.22.15.48.15.77v.37h-1.04v-.37c0-.25-.07-.44-.21-.56-.14-.12-.3-.18-.49-.18s-.35.06-.49.18c-.14.12-.21.3-.21.56v3.83c0,.25.07.44.21.56.14.12.3.18.49.18s.35-.06.49-.18c.14-.12.21-.3.21-.56v-1.37h-.83v-.92h1.86v2.28c0,.3-.05.56-.15.78-.1.22-.24.4-.4.55-.17.15-.35.26-.56.33-.21.07-.42.11-.63.11s-.42-.04-.63-.11c-.21-.07-.39-.19-.56-.33-.17-.15-.3-.33-.4-.55-.1-.22-.15-.48-.15-.78v-3.83Z"/>
          <path class="cls-6" d="m81.52,54.59h3.1v.98h-2.06v2.13h1.79v.98h-1.79v2.13h2.06v1.04h-3.1v-7.25Z"/>
          <path class="cls-6" d="m85.29,54.59h1l1.57,4.37h.02v-4.37h1.04v7.25h-.98l-1.59-4.36h-.02v4.36h-1.04v-7.25Z"/>
          <path class="cls-6" d="m93.2,60.22c0,.22-.04.44-.13.64-.08.2-.2.38-.35.53-.15.15-.32.28-.52.37-.2.09-.42.14-.65.14-.2,0-.4-.03-.6-.08-.2-.05-.39-.15-.55-.28-.16-.13-.3-.31-.4-.52s-.16-.49-.16-.83v-3.99c0-.24.04-.46.12-.66.08-.2.2-.38.35-.53.15-.15.33-.27.54-.35s.44-.13.69-.13c.24,0,.46.04.66.13s.38.2.53.36c.15.15.27.34.35.55.08.21.13.45.13.7v.41h-1.04v-.35c0-.2-.06-.38-.17-.53-.12-.15-.27-.22-.47-.22-.26,0-.43.08-.51.24-.08.16-.13.36-.13.61v3.71c0,.21.05.39.14.53s.26.21.49.21c.07,0,.14-.01.22-.04.08-.02.15-.06.21-.12.06-.05.12-.13.16-.22s.06-.21.06-.36v-.36h1.04v.45Z"/>
          <path class="cls-6" d="m94.08,54.59h3.1v.98h-2.06v2.13h1.79v.98h-1.79v2.13h2.06v1.04h-3.1v-7.25Z"/>
        </g>
      </g>
    </g>
  </g>
</svg>